<svg width="32" height="32" viewBox="0 0 32 32" fill="none" xmlns="http://www.w3.org/2000/svg">
  <!-- Background gradient circle -->
  <defs>
    <linearGradient id="bgGradient" x1="0%" y1="0%" x2="100%" y2="100%">
      <stop offset="0%" style="stop-color:#3B82F6;stop-opacity:1" />
      <stop offset="100%" style="stop-color:#1D4ED8;stop-opacity:1" />
    </linearGradient>
    <linearGradient id="docGradient" x1="0%" y1="0%" x2="100%" y2="100%">
      <stop offset="0%" style="stop-color:#FFFFFF;stop-opacity:1" />
      <stop offset="100%" style="stop-color:#F8FAFC;stop-opacity:1" />
    </linearGradient>
    <linearGradient id="aiGradient" x1="0%" y1="0%" x2="100%" y2="100%">
      <stop offset="0%" style="stop-color:#F59E0B;stop-opacity:1" />
      <stop offset="100%" style="stop-color:#D97706;stop-opacity:1" />
    </linearGradient>
  </defs>
  
  <!-- Background circle with gradient -->
  <circle cx="16" cy="16" r="16" fill="url(#bgGradient)"/>
  
  <!-- Main document/Resume -->
  <rect x="8" y="6" width="16" height="20" rx="1.5" fill="url(#docGradient)" stroke="#E2E8F0" stroke-width="0.5"/>
  
  <!-- Document header section -->
  <rect x="9" y="7" width="14" height="3" rx="0.75" fill="#3B82F6" opacity="0.1"/>
  <rect x="10" y="8" width="12" height="1" rx="0.5" fill="#3B82F6"/>
  
  <!-- Document content lines -->
  <rect x="10" y="11" width="12" height="0.75" rx="0.375" fill="#64748B"/>
  <rect x="10" y="12.5" width="10" height="0.75" rx="0.375" fill="#64748B"/>
  <rect x="10" y="14" width="11" height="0.75" rx="0.375" fill="#64748B"/>
  <rect x="10" y="15.5" width="8" height="0.75" rx="0.375" fill="#64748B"/>
  <rect x="10" y="17" width="9" height="0.75" rx="0.375" fill="#64748B"/>
  
  <!-- AI/Technology elements -->
  <!-- Circuit board pattern -->
  <path d="M22 8L23 7L22 6L21 7L22 8Z" fill="url(#aiGradient)"/>
  <path d="M24 12L25 11L24 10L23 11L24 12Z" fill="url(#aiGradient)"/>
  <path d="M20 12L21 11L20 10L19 11L20 12Z" fill="url(#aiGradient)"/>
  
  <!-- AI brain/neural network dots -->
  <circle cx="24" cy="9" r="0.25" fill="#10B981"/>
  <circle cx="25" cy="10" r="0.2" fill="#10B981"/>
  <circle cx="23.5" cy="11" r="0.2" fill="#10B981"/>
  
  <!-- Document fold with shadow -->
  <path d="M24 6L26 8L24 10V6Z" fill="#E5E7EB"/>
  <path d="M24 6L26 8L24 10V6Z" fill="url(#docGradient)" opacity="0.8"/>
</svg>
